<?xml version="1.0" encoding="UTF-8"?>
<svg xmlns="http://www.w3.org/2000/svg" xmlns:xlink="http://www.w3.org/1999/xlink"
     width="560" height="560" viewBox="-280.0 -280.0 560 560">
<defs>
<g stroke-width="2" id="d0">
<path d="M0,0 L0,-20" />
<path d="M-10,-10 L10,-10" />
</g>
</defs>
<rect x="-280.0" y="-280.0" width="560" height="560" fill="white" />
<ellipse cx="40.0" cy="0.0" rx="10" ry="4" fill="none" stroke="black" transform="rotate(90.0,40.0,0.0)" />
<ellipse cx="20.000000000000004" cy="34.64101615137754" rx="10" ry="4" fill="none" stroke="black" transform="rotate(149.99999999999997,20.000000000000004,34.64101615137754)" />
<ellipse cx="-19.999999999999993" cy="34.64101615137755" rx="10" ry="4" fill="none" stroke="black" transform="rotate(210.0,-19.999999999999993,34.64101615137755)" />
<ellipse cx="-40.0" cy="4.898587196589413e-15" rx="10" ry="4" fill="none" stroke="black" transform="rotate(270.0,-40.0,4.898587196589413e-15)" />
<ellipse cx="-20.000000000000018" cy="-34.641016151377535" rx="10" ry="4" fill="none" stroke="black" transform="rotate(330.0,-20.000000000000018,-34.641016151377535)" />
<ellipse cx="19.99999999999997" cy="-34.64101615137756" rx="6.0" ry="2.4" fill="black" stroke="black" transform="rotate(389.99999999999994,19.99999999999997,-34.64101615137756)" />
<ellipse cx="26.249999999999964" cy="-45.46633369868305" rx="6" ry="3" fill="none" stroke="#cf279c" transform="rotate(-60.00000000000005,26.249999999999964,-45.46633369868305)" />
<use xlink:href="#d0" x="0" y="0" transform="translate(7.831571533203038,-59.48669168242863) rotate(7.499999999999943,0,0)" stroke="#cf279c" />
<use xlink:href="#d0" x="0" y="0" transform="translate(-15.529142706151301,-57.95554957734409) rotate(-15.000000000000057,0,0)" stroke="#cf279c" />
<use xlink:href="#d0" x="0" y="0" transform="translate(-36.525685740523286,-47.601200417474075) rotate(-37.50000000000006,0,0)" stroke="#cf279c" />
<use xlink:href="#d0" x="0" y="0" transform="translate(-51.96152422706635,-29.99999999999995) rotate(-60.00000000000006,0,0)" stroke="#cf279c" />
<use xlink:href="#d0" x="0" y="0" transform="translate(-59.48669168242863,-7.831571533203041) rotate(-82.50000000000006,0,0)" stroke="#cf279c" />
<use xlink:href="#d0" x="0" y="0" transform="translate(-57.95554957734409,15.529142706151298) rotate(-105.00000000000006,0,0)" stroke="#cf279c" />
<use xlink:href="#d0" x="0" y="0" transform="translate(-47.601200417474075,36.52568574052328) rotate(-127.50000000000006,0,0)" stroke="#cf279c" />
<use xlink:href="#d0" x="0" y="0" transform="translate(-29.99999999999993,51.961524227066356) rotate(-150.00000000000006,0,0)" stroke="#cf279c" />
<use xlink:href="#d0" x="0" y="0" transform="translate(-7.831571533203045,59.48669168242863) rotate(-172.50000000000006,0,0)" stroke="#cf279c" />
<use xlink:href="#d0" x="0" y="0" transform="translate(15.52914270615132,57.95554957734408) rotate(-195.00000000000006,0,0)" stroke="#cf279c" />
<use xlink:href="#d0" x="0" y="0" transform="translate(36.52568574052328,47.601200417474075) rotate(-217.50000000000006,0,0)" stroke="#cf279c" />
<use xlink:href="#d0" x="0" y="0" transform="translate(51.961524227066356,29.999999999999932) rotate(-240.00000000000006,0,0)" stroke="#cf279c" />
<use xlink:href="#d0" x="0" y="0" transform="translate(59.48669168242863,7.831571533203048) rotate(-262.50000000000006,0,0)" stroke="#cf279c" />
<use xlink:href="#d0" x="0" y="0" transform="translate(57.95554957734408,-15.529142706151317) rotate(-285.00000000000006,0,0)" stroke="#cf279c" />
<use xlink:href="#d0" x="0" y="0" transform="translate(47.60120041747408,-36.52568574052327) rotate(-307.50000000000006,0,0)" stroke="#cf279c" />
<ellipse cx="56.044394283505795" cy="-63.90638363571313" rx="6" ry="3" fill="black" stroke="black" transform="rotate(-0.8508480103472366,56.044394283505795,-63.90638363571313)" />
</svg>