<?xml version="1.0" encoding="UTF-8"?>
<svg xmlns="http://www.w3.org/2000/svg" xmlns:xlink="http://www.w3.org/1999/xlink"
     width="600" height="600" viewBox="-300.0 -300.0 600 600">
<defs>
<g id="d0">
<path d="M0,0 L0,-30" stroke-width="2" stroke="black" />
<path d="M-10,-30 L10,-30" stroke-width="2" stroke="black" />
</g>
<g id="d1">
<ellipse cx="0" cy="0" rx="12" ry="5" stroke="black" fill="none" stroke-width="1" />
</g>
<g id="d2">
<ellipse cx="0" cy="0" rx="12" ry="5" stroke="black" fill="none" stroke-width="1" />
</g>
<g id="d3">
<ellipse cx="0" cy="0" rx="12" ry="5" stroke="black" fill="none" stroke-width="1" />
</g>
<g id="d4">
<ellipse cx="0" cy="0" rx="12" ry="5" stroke="black" fill="none" stroke-width="1" />
</g>
<g id="d5">
<ellipse cx="0" cy="0" rx="12" ry="5" stroke="black" fill="none" stroke-width="1" />
</g>
<g id="d6">
<ellipse cx="0" cy="0" rx="12" ry="5" stroke="black" fill="none" stroke-width="1" />
</g>
<g id="d7">
<ellipse cx="0" cy="0" rx="12" ry="5" stroke="black" fill="none" stroke-width="1" />
</g>
<g id="d8">
<ellipse cx="0" cy="-5" rx="6" ry="3" stroke-width="2" stroke="black" fill="black" />
</g>
<g id="d9">
<ellipse cx="0" cy="0" rx="12" ry="5" stroke="black" fill="none" stroke-width="1" />
</g>
<g id="d10">
<path d="M0,0 L0,-50" stroke-width="2" stroke="black" />
<path d="M-10,-50 L10,-50" stroke-width="2" stroke="black" />
<path d="M-7,-35 L7,-29" stroke-width="2" stroke="black" />
</g>
<g id="d11">
<ellipse cx="0" cy="0" rx="12" ry="5" stroke="black" fill="none" stroke-width="1" />
</g>
<g id="d12">
<ellipse cx="0" cy="0" rx="12" ry="5" stroke="black" fill="none" stroke-width="1" />
</g>
<g id="d13">
<ellipse cx="0" cy="0" rx="12" ry="5" stroke="black" fill="none" stroke-width="1" />
</g>
<g id="d14">
<ellipse cx="0" cy="0" rx="12" ry="5" stroke="black" fill="none" stroke-width="1" />
</g>
<g id="d15">
<ellipse cx="0" cy="0" rx="12" ry="5" stroke="black" fill="none" stroke-width="1" />
</g>
<g id="d16">
<ellipse cx="0" cy="0" rx="12" ry="5" stroke="black" fill="none" stroke-width="1" />
</g>
<g id="d17">
<ellipse cx="0" cy="0" rx="12" ry="5" stroke="black" fill="none" stroke-width="1" />
</g>
</defs>
<rect x="-300.0" y="-300.0" width="600" height="600" fill="white" />
<ellipse cx="40.0" cy="0.0" rx="10" ry="4" fill="none" stroke="black" transform="rotate(90.0,40.0,0.0)" />
<ellipse cx="30.64177772475912" cy="25.71150438746157" rx="10" ry="4" fill="none" stroke="black" transform="rotate(130.0,30.64177772475912,25.71150438746157)" />
<ellipse cx="6.945927106677217" cy="39.39231012048832" rx="10" ry="4" fill="none" stroke="black" transform="rotate(170.0,6.945927106677217,39.39231012048832)" />
<ellipse cx="-19.999999999999993" cy="34.64101615137755" rx="10" ry="4" fill="none" stroke="black" transform="rotate(210.0,-19.999999999999993,34.64101615137755)" />
<ellipse cx="-37.587704831436334" cy="13.680805733026755" rx="10" ry="4" fill="none" stroke="black" transform="rotate(250.00000000000003,-37.587704831436334,13.680805733026755)" />
<ellipse cx="-37.58770483143634" cy="-13.680805733026746" rx="10" ry="4" fill="none" stroke="black" transform="rotate(290.0,-37.58770483143634,-13.680805733026746)" />
<ellipse cx="-20.000000000000018" cy="-34.641016151377535" rx="10" ry="4" fill="none" stroke="black" transform="rotate(330.0,-20.000000000000018,-34.641016151377535)" />
<ellipse cx="6.945927106677199" cy="-39.392310120488325" rx="10" ry="4" fill="none" stroke="black" transform="rotate(370.0,6.945927106677199,-39.392310120488325)" />
<ellipse cx="30.641777724759113" cy="-25.711504387461584" rx="6.0" ry="2.4" fill="black" stroke="black" transform="rotate(410.0,30.641777724759113,-25.711504387461584)" />
<ellipse cx="41.74942214998429" cy="-35.031924727916405" rx="8" ry="4" fill="none" stroke="black" transform="rotate(-40.00000000000002,41.74942214998429,-35.031924727916405)" />
<ellipse cx="56.30426656924487" cy="-47.244889311960655" rx="8" ry="4" fill="none" stroke="black" transform="rotate(-40.00000000000002,56.30426656924487,-47.244889311960655)" />
<use xlink:href="#d0" x="0" y="0" transform="translate(27.704916794102022,-53.22064999069331) rotate(27.49999999999998,0,0)" />
<use xlink:href="#d0" x="0" y="0" transform="translate(5.229344564859462,-59.771681885504734) rotate(4.999999999999972,0,0)" />
<use xlink:href="#d0" x="0" y="0" transform="translate(-18.042347970256415,-57.22301704489361) rotate(-17.50000000000003,0,0)" />
<use xlink:href="#d0" x="0" y="0" transform="translate(-38.56725658119238,-45.96266658713867) rotate(-40.00000000000003,0,0)" />
<use xlink:href="#d0" x="0" y="0" transform="translate(-53.22064999069332,-27.70491679410201) rotate(-62.50000000000003,0,0)" />
<use xlink:href="#d0" x="0" y="0" transform="translate(-59.771681885504734,-5.229344564859465) rotate(-85.00000000000003,0,0)" />
<use xlink:href="#d0" x="0" y="0" transform="translate(-57.22301704489361,18.04234797025641) rotate(-107.50000000000003,0,0)" />
<use xlink:href="#d0" x="0" y="0" transform="translate(-45.96266658713867,38.567256581192375) rotate(-130.00000000000003,0,0)" />
<use xlink:href="#d0" x="0" y="0" transform="translate(-27.704916794102015,53.22064999069331) rotate(-152.50000000000003,0,0)" />
<use xlink:href="#d0" x="0" y="0" transform="translate(-5.229344564859495,59.771681885504734) rotate(-175.0,0,0)" />
<use xlink:href="#d0" x="0" y="0" transform="translate(18.042347970256408,57.22301704489361) rotate(-197.5,0,0)" />
<use xlink:href="#d0" x="0" y="0" transform="translate(38.56725658119235,45.962666587138685) rotate(-220.0,0,0)" />
<use xlink:href="#d0" x="0" y="0" transform="translate(53.22064999069331,27.70491679410202) rotate(-242.5,0,0)" />
<use xlink:href="#d0" x="0" y="0" transform="translate(59.771681885504734,5.229344564859499) rotate(-265.0,0,0)" />
<use xlink:href="#d0" x="0" y="0" transform="translate(57.22301704489361,-18.042347970256404) rotate(-287.5,0,0)" />
<ellipse cx="83.28904179221321" cy="-45.693933047341865" rx="6" ry="3" fill="black" stroke="black" transform="rotate(-0.5017821599483702,83.28904179221321,-45.693933047341865)" />
<ellipse cx="96.00157974997207" cy="-52.66827019667299" rx="8" ry="4" fill="none" stroke="black" transform="rotate(-28.750000000000032,96.00157974997207,-52.66827019667299)" />
<ellipse cx="112.6593881084147" cy="-61.80705680614137" rx="8" ry="4" fill="none" stroke="black" transform="rotate(-28.750000000000032,112.6593881084147,-61.80705680614137)" />
<ellipse cx="129.31719646685735" cy="-70.94584341560974" rx="8" ry="4" fill="none" stroke="black" transform="rotate(-28.750000000000032,129.31719646685735,-70.94584341560974)" />
<path d="M72.77422209630289,-61.06482292022126 Q81.3325893357116,-85.8691441202746,107.24622203665689,-89.99026535611554" stroke="black" fill="none" stroke-width="2" />
<path d="M83.50199751840368,-83.28374412474805 L87.84081388378782,-78.11294413369497" stroke="black" fill="none" stroke-width="2" />
<path d="M72.77422209630289,-61.06482292022126 Q98.68785479724816,-65.18594415606219,107.24622203665689,-89.99026535611554" stroke="black" fill="none" stroke-width="2" />
<path d="M92.17963024917196,-72.94214414264185 L96.5184466145561,-67.77134415158876" stroke="black" fill="none" stroke-width="2" />
<path d="M72.77422209630289,-61.06482292022126 Q81.3325893357116,-85.8691441202746,107.24622203665689,-89.99026535611554" stroke="black" fill="none" stroke-width="2" />
<path d="M83.50199751840368,-83.28374412474805 L87.84081388378782,-78.11294413369497" stroke="black" fill="none" stroke-width="2" />
<path d="M72.77422209630289,-61.06482292022126 Q98.68785479724816,-65.18594415606219,107.24622203665689,-89.99026535611554" stroke="black" fill="none" stroke-width="2" />
<path d="M92.17963024917196,-72.94214414264185 L96.5184466145561,-67.77134415158876" stroke="black" fill="none" stroke-width="2" />
<path d="M8.27979556102748,-94.63849631871582 Q-9.932142863508073,-118.81778081642017,12.201803984672077,-139.4672577328444" stroke="black" fill="none" stroke-width="2" />
<path d="M-3.2078286513887893,-118.22947955287349 L3.5164855607304952,-117.64117828932679" stroke="black" fill="none" stroke-width="2" />
<path d="M8.27979556102748,-94.63849631871582 Q10.24079977284978,-117.0528770257801,12.201803984672077,-139.4672577328444" stroke="black" fill="none" stroke-width="2" />
<path d="M6.878642666790137,-117.34702765755345 L13.602956878909422,-116.75872639400676" stroke="black" fill="none" stroke-width="2" />
<path d="M8.27979556102748,-94.63849631871582 Q30.413742409207632,-115.28797323514004,12.201803984672077,-139.4672577328444" stroke="black" fill="none" stroke-width="2" />
<path d="M16.965113984969065,-116.46457576223342 L23.689428197088347,-115.87627449868673" stroke="black" fill="none" stroke-width="2" />
<path d="M8.27979556102748,-94.63849631871582 Q-9.932142863508073,-118.81778081642017,12.201803984672077,-139.4672577328444" stroke="black" fill="none" stroke-width="2" />
<path d="M-3.2078286513887893,-118.22947955287349 L3.5164855607304952,-117.64117828932679" stroke="black" fill="none" stroke-width="2" />
<path d="M8.27979556102748,-94.63849631871582 Q10.24079977284978,-117.0528770257801,12.201803984672077,-139.4672577328444" stroke="black" fill="none" stroke-width="2" />
<path d="M6.878642666790137,-117.34702765755345 L13.602956878909422,-116.75872639400676" stroke="black" fill="none" stroke-width="2" />
<path d="M8.27979556102748,-94.63849631871582 Q30.413742409207632,-115.28797323514004,12.201803984672077,-139.4672577328444" stroke="black" fill="none" stroke-width="2" />
<path d="M16.965113984969065,-116.46457576223342 L23.689428197088347,-115.87627449868673" stroke="black" fill="none" stroke-width="2" />
<path d="M8.27979556102748,-94.63849631871582 Q-9.932142863508073,-118.81778081642017,12.201803984672077,-139.4672577328444" stroke="black" fill="none" stroke-width="2" />
<path d="M-3.2078286513887893,-118.22947955287349 L3.5164855607304952,-117.64117828932679" stroke="black" fill="none" stroke-width="2" />
<path d="M8.27979556102748,-94.63849631871582 Q10.24079977284978,-117.0528770257801,12.201803984672077,-139.4672577328444" stroke="black" fill="none" stroke-width="2" />
<path d="M6.878642666790137,-117.34702765755345 L13.602956878909422,-116.75872639400676" stroke="black" fill="none" stroke-width="2" />
<path d="M8.27979556102748,-94.63849631871582 Q30.413742409207632,-115.28797323514004,12.201803984672077,-139.4672577328444" stroke="black" fill="none" stroke-width="2" />
<path d="M16.965113984969065,-116.46457576223342 L23.689428197088347,-115.87627449868673" stroke="black" fill="none" stroke-width="2" />
<path d="M-61.064822920221275,-72.77422209630289 Q-91.03994411132771,-76.99377297032746,-89.99026535611556,-107.24622203665689" stroke="black" fill="none" stroke-width="2" />
<path d="M-85.86914412027461,-81.3325893357116 L-80.69834412922152,-85.67140570109574" stroke="black" fill="none" stroke-width="2" />
<path d="M-61.064822920221275,-72.77422209630289 Q-75.52754413816842,-90.01022206647988,-89.99026535611556,-107.24622203665689" stroke="black" fill="none" stroke-width="2" />
<path d="M-78.11294413369497,-87.84081388378782 L-72.94214414264188,-92.17963024917195" stroke="black" fill="none" stroke-width="2" />
<path d="M-61.064822920221275,-72.77422209630289 Q-60.015144165009126,-103.02667116263231,-89.99026535611556,-107.24622203665689" stroke="black" fill="none" stroke-width="2" />
<path d="M-70.35674414711532,-94.34903843186403 L-65.18594415606223,-98.68785479724816" stroke="black" fill="none" stroke-width="2" />
<path d="M-61.064822920221275,-72.77422209630289 Q-91.03994411132771,-76.99377297032746,-89.99026535611556,-107.24622203665689" stroke="black" fill="none" stroke-width="2" />
<path d="M-85.86914412027461,-81.3325893357116 L-80.69834412922152,-85.67140570109574" stroke="black" fill="none" stroke-width="2" />
<path d="M-61.064822920221275,-72.77422209630289 Q-75.52754413816842,-90.01022206647988,-89.99026535611556,-107.24622203665689" stroke="black" fill="none" stroke-width="2" />
<path d="M-78.11294413369497,-87.84081388378782 L-72.94214414264188,-92.17963024917195" stroke="black" fill="none" stroke-width="2" />
<path d="M-61.064822920221275,-72.77422209630289 Q-60.015144165009126,-103.02667116263231,-89.99026535611556,-107.24622203665689" stroke="black" fill="none" stroke-width="2" />
<path d="M-70.35674414711532,-94.34903843186403 L-65.18594415606223,-98.68785479724816" stroke="black" fill="none" stroke-width="2" />
<path d="M-61.064822920221275,-72.77422209630289 Q-91.03994411132771,-76.99377297032746,-89.99026535611556,-107.24622203665689" stroke="black" fill="none" stroke-width="2" />
<path d="M-85.86914412027461,-81.3325893357116 L-80.69834412922152,-85.67140570109574" stroke="black" fill="none" stroke-width="2" />
<path d="M-61.064822920221275,-72.77422209630289 Q-75.52754413816842,-90.01022206647988,-89.99026535611556,-107.24622203665689" stroke="black" fill="none" stroke-width="2" />
<path d="M-78.11294413369497,-87.84081388378782 L-72.94214414264188,-92.17963024917195" stroke="black" fill="none" stroke-width="2" />
<path d="M-61.064822920221275,-72.77422209630289 Q-60.015144165009126,-103.02667116263231,-89.99026535611556,-107.24622203665689" stroke="black" fill="none" stroke-width="2" />
<path d="M-70.35674414711532,-94.34903843186403 L-65.18594415606223,-98.68785479724816" stroke="black" fill="none" stroke-width="2" />
<path d="M-94.63849631871582,-8.279795561027486 Q-118.81778081642017,9.932142863508068,-139.4672577328444,-12.201803984672084" stroke="black" fill="none" stroke-width="2" />
<path d="M-118.22947955287349,3.2078286513887835 L-117.64117828932679,-3.516485560730501" stroke="black" fill="none" stroke-width="2" />
<path d="M-94.63849631871582,-8.279795561027486 Q-117.0528770257801,-10.240799772849785,-139.4672577328444,-12.201803984672084" stroke="black" fill="none" stroke-width="2" />
<path d="M-117.34702765755345,-6.878642666790142 L-116.75872639400676,-13.602956878909428" stroke="black" fill="none" stroke-width="2" />
<path d="M-94.63849631871582,-8.279795561027486 Q-115.28797323514004,-30.413742409207636,-139.4672577328444,-12.201803984672084" stroke="black" fill="none" stroke-width="2" />
<path d="M-116.46457576223342,-16.96511398496907 L-115.87627449868673,-23.68942819708835" stroke="black" fill="none" stroke-width="2" />
<path d="M-94.63849631871582,-8.279795561027486 Q-118.81778081642017,9.932142863508068,-139.4672577328444,-12.201803984672084" stroke="black" fill="none" stroke-width="2" />
<path d="M-118.22947955287349,3.2078286513887835 L-117.64117828932679,-3.516485560730501" stroke="black" fill="none" stroke-width="2" />
<path d="M-94.63849631871582,-8.279795561027486 Q-117.0528770257801,-10.240799772849785,-139.4672577328444,-12.201803984672084" stroke="black" fill="none" stroke-width="2" />
<path d="M-117.34702765755345,-6.878642666790142 L-116.75872639400676,-13.602956878909428" stroke="black" fill="none" stroke-width="2" />
<path d="M-94.63849631871582,-8.279795561027486 Q-115.28797323514004,-30.413742409207636,-139.4672577328444,-12.201803984672084" stroke="black" fill="none" stroke-width="2" />
<path d="M-116.46457576223342,-16.96511398496907 L-115.87627449868673,-23.68942819708835" stroke="black" fill="none" stroke-width="2" />
<path d="M-94.63849631871582,-8.279795561027486 Q-118.81778081642017,9.932142863508068,-139.4672577328444,-12.201803984672084" stroke="black" fill="none" stroke-width="2" />
<path d="M-118.22947955287349,3.2078286513887835 L-117.64117828932679,-3.516485560730501" stroke="black" fill="none" stroke-width="2" />
<path d="M-94.63849631871582,-8.279795561027486 Q-117.0528770257801,-10.240799772849785,-139.4672577328444,-12.201803984672084" stroke="black" fill="none" stroke-width="2" />
<path d="M-117.34702765755345,-6.878642666790142 L-116.75872639400676,-13.602956878909428" stroke="black" fill="none" stroke-width="2" />
<path d="M-94.63849631871582,-8.279795561027486 Q-115.28797323514004,-30.413742409207636,-139.4672577328444,-12.201803984672084" stroke="black" fill="none" stroke-width="2" />
<path d="M-116.46457576223342,-16.96511398496907 L-115.87627449868673,-23.68942819708835" stroke="black" fill="none" stroke-width="2" />
<path d="M-72.77422209630289,61.06482292022126 Q-76.99377297032748,91.0399441113277,-107.2462220366569,89.99026535611553" stroke="black" fill="none" stroke-width="2" />
<path d="M-81.33258933571162,85.8691441202746 L-85.67140570109575,80.69834412922148" stroke="black" fill="none" stroke-width="2" />
<path d="M-72.77422209630289,61.06482292022126 Q-90.0102220664799,75.5275441381684,-107.2462220366569,89.99026535611553" stroke="black" fill="none" stroke-width="2" />
<path d="M-87.84081388378783,78.11294413369495 L-92.17963024917196,72.94214414264184" stroke="black" fill="none" stroke-width="2" />
<path d="M-72.77422209630289,61.06482292022126 Q-103.02667116263231,60.01514416500909,-107.2462220366569,89.99026535611553" stroke="black" fill="none" stroke-width="2" />
<path d="M-94.34903843186403,70.35674414711528 L-98.68785479724816,65.18594415606219" stroke="black" fill="none" stroke-width="2" />
<path d="M-72.77422209630289,61.06482292022126 Q-76.99377297032748,91.0399441113277,-107.2462220366569,89.99026535611553" stroke="black" fill="none" stroke-width="2" />
<path d="M-81.33258933571162,85.8691441202746 L-85.67140570109575,80.69834412922148" stroke="black" fill="none" stroke-width="2" />
<path d="M-72.77422209630289,61.06482292022126 Q-90.0102220664799,75.5275441381684,-107.2462220366569,89.99026535611553" stroke="black" fill="none" stroke-width="2" />
<path d="M-87.84081388378783,78.11294413369495 L-92.17963024917196,72.94214414264184" stroke="black" fill="none" stroke-width="2" />
<path d="M-72.77422209630289,61.06482292022126 Q-103.02667116263231,60.01514416500909,-107.2462220366569,89.99026535611553" stroke="black" fill="none" stroke-width="2" />
<path d="M-94.34903843186403,70.35674414711528 L-98.68785479724816,65.18594415606219" stroke="black" fill="none" stroke-width="2" />
<path d="M-72.77422209630289,61.06482292022126 Q-76.99377297032748,91.0399441113277,-107.2462220366569,89.99026535611553" stroke="black" fill="none" stroke-width="2" />
<path d="M-81.33258933571162,85.8691441202746 L-85.67140570109575,80.69834412922148" stroke="black" fill="none" stroke-width="2" />
<path d="M-72.77422209630289,61.06482292022126 Q-90.0102220664799,75.5275441381684,-107.2462220366569,89.99026535611553" stroke="black" fill="none" stroke-width="2" />
<path d="M-87.84081388378783,78.11294413369495 L-92.17963024917196,72.94214414264184" stroke="black" fill="none" stroke-width="2" />
<path d="M-72.77422209630289,61.06482292022126 Q-103.02667116263231,60.01514416500909,-107.2462220366569,89.99026535611553" stroke="black" fill="none" stroke-width="2" />
<path d="M-94.34903843186403,70.35674414711528 L-98.68785479724816,65.18594415606219" stroke="black" fill="none" stroke-width="2" />
<path d="M-8.279795561027534,94.63849631871582 Q9.932142863508009,118.81778081642018,-12.201803984672154,139.4672577328444" stroke="black" fill="none" stroke-width="2" />
<path d="M3.207828651388725,118.22947955287349 L-3.5164855607305596,117.64117828932679" stroke="black" fill="none" stroke-width="2" />
<path d="M-8.279795561027534,94.63849631871582 Q-10.240799772849844,117.0528770257801,-12.201803984672154,139.4672577328444" stroke="black" fill="none" stroke-width="2" />
<path d="M-6.878642666790201,117.34702765755345 L-13.602956878909486,116.75872639400676" stroke="black" fill="none" stroke-width="2" />
<path d="M-8.279795561027534,94.63849631871582 Q-30.413742409207696,115.28797323514003,-12.201803984672154,139.4672577328444" stroke="black" fill="none" stroke-width="2" />
<path d="M-16.96511398496913,116.46457576223342 L-23.68942819708841,115.87627449868673" stroke="black" fill="none" stroke-width="2" />
<path d="M-8.279795561027534,94.63849631871582 Q9.932142863508009,118.81778081642018,-12.201803984672154,139.4672577328444" stroke="black" fill="none" stroke-width="2" />
<path d="M3.207828651388725,118.22947955287349 L-3.5164855607305596,117.64117828932679" stroke="black" fill="none" stroke-width="2" />
<path d="M-8.279795561027534,94.63849631871582 Q-10.240799772849844,117.0528770257801,-12.201803984672154,139.4672577328444" stroke="black" fill="none" stroke-width="2" />
<path d="M-6.878642666790201,117.34702765755345 L-13.602956878909486,116.75872639400676" stroke="black" fill="none" stroke-width="2" />
<path d="M-8.279795561027534,94.63849631871582 Q-30.413742409207696,115.28797323514003,-12.201803984672154,139.4672577328444" stroke="black" fill="none" stroke-width="2" />
<path d="M-16.96511398496913,116.46457576223342 L-23.68942819708841,115.87627449868673" stroke="black" fill="none" stroke-width="2" />
<path d="M-8.279795561027534,94.63849631871582 Q9.932142863508009,118.81778081642018,-12.201803984672154,139.4672577328444" stroke="black" fill="none" stroke-width="2" />
<path d="M3.207828651388725,118.22947955287349 L-3.5164855607305596,117.64117828932679" stroke="black" fill="none" stroke-width="2" />
<path d="M-8.279795561027534,94.63849631871582 Q-10.240799772849844,117.0528770257801,-12.201803984672154,139.4672577328444" stroke="black" fill="none" stroke-width="2" />
<path d="M-6.878642666790201,117.34702765755345 L-13.602956878909486,116.75872639400676" stroke="black" fill="none" stroke-width="2" />
<path d="M-8.279795561027534,94.63849631871582 Q-30.413742409207696,115.28797323514003,-12.201803984672154,139.4672577328444" stroke="black" fill="none" stroke-width="2" />
<path d="M-16.96511398496913,116.46457576223342 L-23.68942819708841,115.87627449868673" stroke="black" fill="none" stroke-width="2" />
<path d="M61.06482292022123,72.77422209630292 Q91.03994411132767,76.99377297032751,89.9902653561155,107.24622203665693" stroke="black" fill="none" stroke-width="2" />
<path d="M85.86914412027457,81.33258933571166 L80.69834412922148,85.6714057010958" stroke="black" fill="none" stroke-width="2" />
<path d="M61.06482292022123,72.77422209630292 Q75.52754413816837,90.01022206647993,89.9902653561155,107.24622203665693" stroke="black" fill="none" stroke-width="2" />
<path d="M78.11294413369492,87.84081388378786 L72.94214414264181,92.17963024917199" stroke="black" fill="none" stroke-width="2" />
<path d="M61.06482292022123,72.77422209630292 Q60.01514416500906,103.02667116263234,89.9902653561155,107.24622203665693" stroke="black" fill="none" stroke-width="2" />
<path d="M70.35674414711528,94.34903843186407 L65.18594415606216,98.6878547972482" stroke="black" fill="none" stroke-width="2" />
<path d="M61.06482292022123,72.77422209630292 Q91.03994411132767,76.99377297032751,89.9902653561155,107.24622203665693" stroke="black" fill="none" stroke-width="2" />
<path d="M85.86914412027457,81.33258933571166 L80.69834412922148,85.6714057010958" stroke="black" fill="none" stroke-width="2" />
<path d="M61.06482292022123,72.77422209630292 Q75.52754413816837,90.01022206647993,89.9902653561155,107.24622203665693" stroke="black" fill="none" stroke-width="2" />
<path d="M78.11294413369492,87.84081388378786 L72.94214414264181,92.17963024917199" stroke="black" fill="none" stroke-width="2" />
<path d="M61.06482292022123,72.77422209630292 Q60.01514416500906,103.02667116263234,89.9902653561155,107.24622203665693" stroke="black" fill="none" stroke-width="2" />
<path d="M70.35674414711528,94.34903843186407 L65.18594415606216,98.6878547972482" stroke="black" fill="none" stroke-width="2" />
<path d="M61.06482292022123,72.77422209630292 Q91.03994411132767,76.99377297032751,89.9902653561155,107.24622203665693" stroke="black" fill="none" stroke-width="2" />
<path d="M85.86914412027457,81.33258933571166 L80.69834412922148,85.6714057010958" stroke="black" fill="none" stroke-width="2" />
<path d="M61.06482292022123,72.77422209630292 Q75.52754413816837,90.01022206647993,89.9902653561155,107.24622203665693" stroke="black" fill="none" stroke-width="2" />
<path d="M78.11294413369492,87.84081388378786 L72.94214414264181,92.17963024917199" stroke="black" fill="none" stroke-width="2" />
<path d="M61.06482292022123,72.77422209630292 Q60.01514416500906,103.02667116263234,89.9902653561155,107.24622203665693" stroke="black" fill="none" stroke-width="2" />
<path d="M70.35674414711528,94.34903843186407 L65.18594415606216,98.6878547972482" stroke="black" fill="none" stroke-width="2" />
<path d="M94.63849631871582,8.27979556102754 Q118.81778081642018,-9.932142863508,139.4672577328444,12.201803984672164" stroke="black" fill="none" stroke-width="2" />
<path d="M118.22947955287349,-3.207828651388716 L117.64117828932679,3.5164855607305685" stroke="black" fill="none" stroke-width="2" />
<path d="M94.63849631871582,8.27979556102754 Q117.0528770257801,10.240799772849853,139.4672577328444,12.201803984672164" stroke="black" fill="none" stroke-width="2" />
<path d="M117.34702765755345,6.87864266679021 L116.75872639400676,13.602956878909495" stroke="black" fill="none" stroke-width="2" />
<path d="M94.63849631871582,8.27979556102754 Q115.28797323514003,30.413742409207707,139.4672577328444,12.201803984672164" stroke="black" fill="none" stroke-width="2" />
<path d="M116.46457576223342,16.96511398496914 L115.87627449868673,23.68942819708842" stroke="black" fill="none" stroke-width="2" />
<path d="M94.63849631871582,8.27979556102754 Q118.81778081642018,-9.932142863508,139.4672577328444,12.201803984672164" stroke="black" fill="none" stroke-width="2" />
<path d="M118.22947955287349,-3.207828651388716 L117.64117828932679,3.5164855607305685" stroke="black" fill="none" stroke-width="2" />
<path d="M94.63849631871582,8.27979556102754 Q117.0528770257801,10.240799772849853,139.4672577328444,12.201803984672164" stroke="black" fill="none" stroke-width="2" />
<path d="M117.34702765755345,6.87864266679021 L116.75872639400676,13.602956878909495" stroke="black" fill="none" stroke-width="2" />
<path d="M94.63849631871582,8.27979556102754 Q115.28797323514003,30.413742409207707,139.4672577328444,12.201803984672164" stroke="black" fill="none" stroke-width="2" />
<path d="M116.46457576223342,16.96511398496914 L115.87627449868673,23.68942819708842" stroke="black" fill="none" stroke-width="2" />
<path d="M94.63849631871582,8.27979556102754 Q118.81778081642018,-9.932142863508,139.4672577328444,12.201803984672164" stroke="black" fill="none" stroke-width="2" />
<path d="M118.22947955287349,-3.207828651388716 L117.64117828932679,3.5164855607305685" stroke="black" fill="none" stroke-width="2" />
<path d="M94.63849631871582,8.27979556102754 Q117.0528770257801,10.240799772849853,139.4672577328444,12.201803984672164" stroke="black" fill="none" stroke-width="2" />
<path d="M117.34702765755345,6.87864266679021 L116.75872639400676,13.602956878909495" stroke="black" fill="none" stroke-width="2" />
<path d="M94.63849631871582,8.27979556102754 Q115.28797323514003,30.413742409207707,139.4672577328444,12.201803984672164" stroke="black" fill="none" stroke-width="2" />
<path d="M116.46457576223342,16.96511398496914 L115.87627449868673,23.68942819708842" stroke="black" fill="none" stroke-width="2" />
<use xlink:href="#d1" x="0" y="0" transform="translate(107.98023523999355,-116.60394320194244) rotate(-94.53157333426569)" />
<use xlink:href="#d1" x="0" y="0" transform="translate(101.78147208958752,-142.4004814658786) rotate(-114.70223996357444)" />
<use xlink:href="#d1" x="0" y="0" transform="translate(84.24578417164021,-161.8346456663915) rotate(-152.50000000000017)" />
<use xlink:href="#d1" x="0" y="0" transform="translate(58.268191452801744,-165.05206162680045) rotate(169.70223996357424)" />
<use xlink:href="#d1" x="0" y="0" transform="translate(33.58143992072509,-155.33350464589677) rotate(149.5315733342655)" />
<use xlink:href="#d2" x="0" y="0" transform="translate(-6.097882378866503,-158.80499552350258) rotate(-139.5315733342657)" />
<use xlink:href="#d2" x="0" y="0" transform="translate(-28.721976975055384,-172.6627152024487) rotate(-159.70223996357444)" />
<use xlink:href="#d2" x="0" y="0" transform="translate(-54.863610107482465,-174.00514065577266) rotate(162.49999999999983)" />
<use xlink:href="#d2" x="0" y="0" transform="translate(-75.50759872137839,-157.9112653288827) rotate(124.70223996357423)" />
<use xlink:href="#d2" x="0" y="0" transform="translate(-86.09171059063232,-133.58303837053904) rotate(104.53157333426547)" />
<use xlink:href="#d3" x="0" y="0" transform="translate(-116.60394320194246,-107.98023523999355) rotate(175.46842666573434)" />
<use xlink:href="#d3" x="0" y="0" transform="translate(-142.4004814658786,-101.78147208958752) rotate(155.29776003642556)" />
<use xlink:href="#d3" x="0" y="0" transform="translate(-161.8346456663915,-84.24578417164021) rotate(117.49999999999984)" />
<use xlink:href="#d3" x="0" y="0" transform="translate(-165.05206162680042,-58.26819145280177) rotate(79.70223996357423)" />
<use xlink:href="#d3" x="0" y="0" transform="translate(-155.33350464589677,-33.5814399207251) rotate(59.53157333426547)" />
<use xlink:href="#d4" x="0" y="0" transform="translate(-158.80499552350258,6.097882378866485) rotate(130.46842666573434)" />
<use xlink:href="#d4" x="0" y="0" transform="translate(-172.6627152024487,28.721976975055362) rotate(110.29776003642557)" />
<use xlink:href="#d4" x="0" y="0" transform="translate(-174.00514065577266,54.863610107482444) rotate(72.49999999999987)" />
<use xlink:href="#d4" x="0" y="0" transform="translate(-157.91126532888273,75.50759872137836) rotate(34.70223996357424)" />
<use xlink:href="#d4" x="0" y="0" transform="translate(-133.58303837053907,86.0917105906323) rotate(14.531573334265465)" />
<use xlink:href="#d5" x="0" y="0" transform="translate(-107.98023523999358,116.60394320194243) rotate(85.46842666573436)" />
<use xlink:href="#d5" x="0" y="0" transform="translate(-101.78147208958758,142.40048146587858) rotate(65.29776003642559)" />
<use xlink:href="#d5" x="0" y="0" transform="translate(-84.24578417164028,161.8346456663915) rotate(27.499999999999883)" />
<use xlink:href="#d5" x="0" y="0" transform="translate(-58.268191452801844,165.05206162680042) rotate(-10.297760036425746)" />
<use xlink:href="#d5" x="0" y="0" transform="translate(-33.58143992072519,155.33350464589677) rotate(-30.46842666573452)" />
<use xlink:href="#d6" x="0" y="0" transform="translate(6.097882378866419,158.80499552350258) rotate(40.46842666573435)" />
<use xlink:href="#d6" x="0" y="0" transform="translate(28.7219769750553,172.66271520244874) rotate(20.297760036425583)" />
<use xlink:href="#d6" x="0" y="0" transform="translate(54.86361010748237,174.0051406557727) rotate(-17.500000000000124)" />
<use xlink:href="#d6" x="0" y="0" transform="translate(75.50759872137833,157.91126532888273) rotate(-55.29776003642576)" />
<use xlink:href="#d6" x="0" y="0" transform="translate(86.09171059063226,133.5830383705391) rotate(-75.46842666573451)" />
<use xlink:href="#d7" x="0" y="0" transform="translate(116.6039432019424,107.9802352399936) rotate(-4.531573334265642)" />
<use xlink:href="#d7" x="0" y="0" transform="translate(142.40048146587856,101.78147208958761) rotate(-24.702239963574396)" />
<use xlink:href="#d7" x="0" y="0" transform="translate(161.83464566639145,84.24578417164031) rotate(-62.50000000000011)" />
<use xlink:href="#d7" x="0" y="0" transform="translate(165.05206162680042,58.26819145280187) rotate(-100.29776003642573)" />
<use xlink:href="#d7" x="0" y="0" transform="translate(155.33350464589677,33.5814399207252) rotate(-120.4684266657345)" />
<use xlink:href="#d8" x="0" y="0" transform="translate(107.24622203665689, -89.99026535611554) rotate(180, 0, 0)" />
<use xlink:href="#d9" x="0" y="0" transform="translate(159.48307412028998,-5.373010507837119) rotate(-46.441284467856796)" />
<use xlink:href="#d9" x="0" y="0" transform="translate(174.92437247092874,-26.975704996796832) rotate(-64.90719524351147)" />
<use xlink:href="#d9" x="0" y="0" transform="translate(177.54968794621425,-52.83461163666226) rotate(-109.26446948529745)" />
<use xlink:href="#d9" x="0" y="0" transform="translate(159.38815302931425,-71.42853492940174) rotate(-153.6217437270837)" />
<use xlink:href="#d9" x="0" y="0" transform="translate(133.85199267318296,-78.70964873174881) rotate(-172.08765450273847)" />
<use xlink:href="#d8" x="0" y="0" transform="translate(108.22892896076182, -102.25542794755039) rotate(92.22935360574225, 0, 0)" />
<use xlink:href="#d8" x="0" y="0" transform="translate(108.12272944625832, -114.557647064433) rotate(86.55698539105722, 0, 0)" />
<use xlink:href="#d10" x="0" y="0" transform="translate(97.76983279950663, -149.5471832856482) rotate(55.75324374530713, 0, 0)" />
<use xlink:href="#d10" x="0" y="0" transform="translate(89.42180946784995, -158.52124854682947) rotate(37.69234917288483, 0, 0)" />
<use xlink:href="#d10" x="0" y="0" transform="translate(78.56276200374684, -164.174110857019) rotate(17.307650827114884, 0, 0)" />
<use xlink:href="#d10" x="0" y="0" transform="translate(66.42340862632038, -165.86509886282767) rotate(359.2467562546926, 0, 0)" />
<use xlink:href="#d10" x="0" y="0" transform="translate(-33.34033982421281, -174.1328057159536) rotate(14.902150667102859, 0, 0)" />
<use xlink:href="#d10" x="0" y="0" transform="translate(-47.74883154467563, -175.44704049287844) rotate(354.49265439133296, 0, 0)" />
<use xlink:href="#d10" x="0" y="0" transform="translate(-61.51873528201144, -171.10540652151622) rotate(330.5073456086667, 0, 0)" />
<use xlink:href="#d10" x="0" y="0" transform="translate(-72.56766663007234, -161.7644770831059) rotate(310.097849332897, 0, 0)" />
<use xlink:href="#d10" x="0" y="0" transform="translate(-80.35846745722675, -149.52612784638396) rotate(295.776449553931, 0, 0)" />
<use xlink:href="#d10" x="0" y="0" transform="translate(-146.70566812555518, -99.55530737202561) rotate(329.9021506671029, 0, 0)" />
<use xlink:href="#d10" x="0" y="0" transform="translate(-157.8233146505994, -90.29626949265086) rotate(309.49265439133296, 0, 0)" />
<use xlink:href="#d10" x="0" y="0" transform="translate(-164.49010813697544, -77.48947836111462) rotate(285.5073456086667, 0, 0)" />
<use xlink:href="#d10" x="0" y="0" transform="translate(-165.69784786956893, -63.071669531551166) rotate(265.09784933289694, 0, 0)" />
<use xlink:href="#d10" x="0" y="0" transform="translate(-162.55295622950828, -48.90892169998122) rotate(250.77644955393097, 0, 0)" />
<use xlink:href="#d10" x="0" y="0" transform="translate(-174.13280571595362, 33.34033982421279) rotate(284.9021506671029, 0, 0)" />
<use xlink:href="#d10" x="0" y="0" transform="translate(-175.44704049287844, 47.74883154467561) rotate(264.492654391333, 0, 0)" />
<use xlink:href="#d10" x="0" y="0" transform="translate(-171.10540652151624, 61.518735282011434) rotate(240.5073456086667, 0, 0)" />
<use xlink:href="#d10" x="0" y="0" transform="translate(-161.76447708310593, 72.56766663007232) rotate(220.097849332897, 0, 0)" />
<use xlink:href="#d10" x="0" y="0" transform="translate(-149.526127846384, 80.35846745722672) rotate(205.77644955393097, 0, 0)" />
<use xlink:href="#d10" x="0" y="0" transform="translate(-99.55530737202567, 146.70566812555515) rotate(239.90215066710292, 0, 0)" />
<use xlink:href="#d10" x="0" y="0" transform="translate(-90.29626949265094, 157.8233146505994) rotate(219.49265439133305, 0, 0)" />
<use xlink:href="#d10" x="0" y="0" transform="translate(-77.48947836111469, 164.49010813697544) rotate(195.50734560866672, 0, 0)" />
<use xlink:href="#d10" x="0" y="0" transform="translate(-63.07166953155124, 165.69784786956893) rotate(175.097849332897, 0, 0)" />
<use xlink:href="#d10" x="0" y="0" transform="translate(-48.908921699981306, 162.5529562295083) rotate(160.776449553931, 0, 0)" />
<use xlink:href="#d10" x="0" y="0" transform="translate(33.340339824212705, 174.13280571595362) rotate(194.90215066710292, 0, 0)" />
<use xlink:href="#d10" x="0" y="0" transform="translate(47.74883154467554, 175.44704049287847) rotate(174.49265439133302, 0, 0)" />
<use xlink:href="#d10" x="0" y="0" transform="translate(61.51873528201136, 171.10540652151624) rotate(150.50734560866672, 0, 0)" />
<use xlink:href="#d10" x="0" y="0" transform="translate(72.56766663007227, 161.76447708310596) rotate(130.097849332897, 0, 0)" />
<use xlink:href="#d10" x="0" y="0" transform="translate(80.35846745722668, 149.52612784638401) rotate(115.776449553931, 0, 0)" />
<use xlink:href="#d10" x="0" y="0" transform="translate(146.70566812555512, 99.55530737202571) rotate(149.90215066710292, 0, 0)" />
<use xlink:href="#d10" x="0" y="0" transform="translate(157.82331465059934, 90.29626949265096) rotate(129.49265439133305, 0, 0)" />
<use xlink:href="#d10" x="0" y="0" transform="translate(164.49010813697538, 77.48947836111472) rotate(105.50734560866672, 0, 0)" />
<use xlink:href="#d10" x="0" y="0" transform="translate(165.69784786956893, 63.07166953155127) rotate(85.097849332897, 0, 0)" />
<use xlink:href="#d10" x="0" y="0" transform="translate(162.55295622950825, 48.90892169998132) rotate(70.77644955393102, 0, 0)" />
<use xlink:href="#d10" x="0" y="0" transform="translate(176.77384622603518, -31.45558595261902) rotate(109.60984057664875, 0, 0)" />
<use xlink:href="#d10" x="0" y="0" transform="translate(178.98950147121928, -45.72826263970498) rotate(86.13331319897199, 0, 0)" />
<use xlink:href="#d10" x="0" y="0" transform="translate(174.2494302087655, -59.290737248804035) rotate(55.33774783043313, 0, 0)" />
<use xlink:href="#d10" x="0" y="0" transform="translate(163.62554649685373, -69.07600795815972) rotate(31.86122045275627, 0, 0)" />
<use xlink:href="#d10" x="0" y="0" transform="translate(150.39860921052434, -75.04063258888317) rotate(17.87103347748871, 0, 0)" />
<ellipse cx="128.48641182069787" cy="-125.2809336454697" rx="8" ry="4" fill="none" stroke="black" transform="rotate(-44.27630324816529,128.48641182069787,-125.2809336454697)" />
<ellipse cx="142.0900608433375" cy="-138.54519891983884" rx="8" ry="4" fill="none" stroke="black" transform="rotate(-44.27630324816529,142.0900608433375,-138.54519891983884)" />
<ellipse cx="155.69370986597716" cy="-151.809464194208" rx="8" ry="4" fill="none" stroke="black" transform="rotate(-44.27630324816529,155.69370986597716,-151.809464194208)" />
<use xlink:href="#d11" x="0" y="0" transform="translate(47.38783557490288,-227.4046229223328) rotate(-151.23509778308497)" />
<use xlink:href="#d11" x="0" y="0" transform="translate(23.589442326661377,-234.42747933436542) rotate(-175.58851357407536)" />
<use xlink:href="#d11" x="0" y="0" transform="translate(-1.0045237868054357,-231.1379711353146) rotate(160.05807063493424)" />
<use xlink:href="#d12" x="0" y="0" transform="translate(-141.23622323121367,-183.48743554076174) rotate(-153.47188802261238)" />
<use xlink:href="#d12" x="0" y="0" transform="translate(-165.0916613708998,-185.43653892202633) rotate(147.68716471220108)" />
<use xlink:href="#d12" x="0" y="0" transform="translate(-173.55337267755283,-163.04724740598903) rotate(88.8462174470156)" />
<use xlink:href="#d13" x="0" y="0" transform="translate(-229.61430112937035,-29.876118737433984) rotate(161.52811197738768)" />
<use xlink:href="#d13" x="0" y="0" transform="translate(-247.86086742424442,-14.38600087881158) rotate(102.68716471220115)" />
<use xlink:href="#d13" x="0" y="0" transform="translate(-238.01258101266922,7.428952423518098) rotate(43.8462174470156)" />
<use xlink:href="#d14" x="0" y="0" transform="translate(-183.48743554076177,141.23622323121364) rotate(116.52811197738768)" />
<use xlink:href="#d14" x="0" y="0" transform="translate(-185.4365389220264,165.09166137089974) rotate(57.687164712201124)" />
<use xlink:href="#d14" x="0" y="0" transform="translate(-163.04724740598905,173.55337267755277) rotate(-1.153782552984419)" />
<use xlink:href="#d15" x="0" y="0" transform="translate(-29.876118737434066,229.6143011293704) rotate(71.52811197738761)" />
<use xlink:href="#d15" x="0" y="0" transform="translate(-14.386000878811629,247.86086742424445) rotate(12.687164712201055)" />
<use xlink:href="#d15" x="0" y="0" transform="translate(7.428952423518027,238.01258101266922) rotate(-46.15378255298449)" />
<use xlink:href="#d16" x="0" y="0" transform="translate(141.2362232312136,183.48743554076185) rotate(26.528111977387674)" />
<use xlink:href="#d16" x="0" y="0" transform="translate(165.0916613708997,185.43653892202644) rotate(-32.31283528779886)" />
<use xlink:href="#d16" x="0" y="0" transform="translate(173.55337267755272,163.0472474059891) rotate(-91.1537825529844)" />
<use xlink:href="#d17" x="0" y="0" transform="translate(229.93354415017234,32.392249658658045) rotate(-11.476596361111595)" />
<use xlink:href="#d17" x="0" y="0" transform="translate(249.95662677689955,19.465000671364862) rotate(-74.36269486628827)" />
<use xlink:href="#d17" x="0" y="0" transform="translate(239.5541765283649,-1.9785679001900718) rotate(-137.2487933714648)" />
<use xlink:href="#d0" x="0" y="0" transform="translate(139.5841254970618, -136.1017816324551) rotate(89.22723272770806, 0, 0)" />
</svg>